<svg width="100" height="100" viewBox="0 0 100 100" fill="none" xmlns="http://www.w3.org/2000/svg">
<g clip-path="url(#clip0_9_732)">
<path d="M90 0H10C4.47715 0 0 4.47715 0 10V90C0 95.5229 4.47715 100 10 100H90C95.5229 100 100 95.5229 100 90V10C100 4.47715 95.5229 0 90 0Z" fill="#006B6C"/>
<path d="M51.7463 52.5565C52.283 52.5565 52.6797 52.763 52.9363 53.1761L57.9063 62.3242C58.0697 62.5671 58.2213 62.8102 58.3613 63.0531C58.478 63.2961 58.5947 63.5512 58.7113 63.8185L58.8513 63.7821C58.828 63.4662 58.8163 63.1503 58.8163 62.8345C58.8163 62.5429 58.8163 62.2391 58.8163 61.9233V47.0894C58.8163 46.3848 59.4347 46.0325 60.6713 46.0325H61.4413C62.678 46.0325 63.2963 46.3848 63.2963 47.0894V70.6341C63.2963 71.3388 62.678 71.691 61.4413 71.691H59.7963C59.3063 71.691 58.898 71.6181 58.5713 71.4724C58.2213 71.3508 57.9763 71.1322 57.8363 70.8163L51.7463 59.6271C51.653 59.4571 51.5597 59.2627 51.4663 59.044C51.3497 58.8496 51.2563 58.6431 51.1863 58.4244C51.1163 58.6431 51.023 58.8618 50.9063 59.0804C50.7897 59.2991 50.6963 59.4935 50.6263 59.6636L44.5363 70.8163C44.373 71.1322 44.128 71.3508 43.8013 71.4724C43.4513 71.6181 43.043 71.691 42.5763 71.691H40.9663C39.7297 71.691 39.1113 71.3388 39.1113 70.6341V47.0894C39.1113 46.3848 39.7297 46.0325 40.9663 46.0325H41.7363C42.973 46.0325 43.5913 46.3848 43.5913 47.0894V61.8504C43.5913 62.1662 43.5913 62.47 43.5913 62.7616C43.568 63.0774 43.5563 63.3933 43.5563 63.7092L43.6963 63.7456C43.813 63.4783 43.9413 63.2232 44.0813 62.9802C44.198 62.7373 44.338 62.4943 44.5013 62.2513L49.4363 53.1761C49.693 52.763 50.0897 52.5565 50.6263 52.5565H51.7463Z" fill="white"/>
<path d="M42.9525 60.4511C42.471 60.698 42.0275 60.6952 41.622 60.4427L33.2825 54.5217C33.0329 54.3789 32.7938 54.2306 32.5651 54.0771C32.3574 53.9128 32.1445 53.7375 31.9264 53.5514L31.8163 53.6485C31.9712 53.9211 32.1157 54.1991 32.2497 54.4825C32.3734 54.7441 32.5022 55.0166 32.6362 55.2999L38.9288 68.608C39.2278 69.2402 38.8225 69.8408 37.713 70.4096L37.0222 70.7638C35.9128 71.3327 35.2086 71.301 34.9097 70.6688L24.9218 49.546C24.6229 48.9138 25.0282 48.3133 26.1377 47.7444L27.6135 46.9878C28.0531 46.7623 28.4503 46.6398 28.8052 46.6204C29.1708 46.5684 29.4833 46.6519 29.7429 46.8708L39.953 54.1077C40.1089 54.2174 40.2751 54.3489 40.4516 54.5021C40.6387 54.6229 40.8101 54.7652 40.9657 54.9291C40.9357 54.7007 40.9267 54.4616 40.9386 54.2118C40.9505 53.9619 40.9517 53.7446 40.9424 53.5599L41.6749 40.7529C41.6874 40.3943 41.8145 40.0854 42.056 39.8262C42.3082 39.5344 42.6436 39.2811 43.0622 39.0664L44.5066 38.3258C45.6161 37.7569 46.3203 37.7886 46.6192 38.4208L56.607 59.5437C56.9059 60.1758 56.5007 60.7763 55.3912 61.3452L54.7004 61.6994C53.5909 62.2682 52.8867 62.2366 52.5878 61.6045L46.3261 48.3618C46.1921 48.0785 46.0633 47.8059 45.9396 47.5444C45.8265 47.2503 45.703 46.9615 45.569 46.6781L45.4279 46.7098C45.4367 47.0033 45.4297 47.2912 45.4072 47.5736C45.4056 47.8452 45.3831 48.1276 45.3396 48.4207L44.762 58.8327C44.707 59.3213 44.4387 59.6891 43.9573 59.936L42.9525 60.4511Z" fill="white"/>
<path d="M51.218 41.1363C47.648 41.1363 44.9063 40.0186 42.993 37.7832C41.0796 35.5478 40.123 32.3283 40.123 28.1248C40.123 23.8726 41.0796 20.641 42.993 18.4299C44.9063 16.2188 47.648 15.1133 51.218 15.1133C54.788 15.1133 57.5181 16.2188 59.4081 18.4299C61.3214 20.641 62.278 23.8726 62.278 28.1248C62.278 32.3283 61.3214 35.5478 59.4081 37.7832C57.5181 40.0186 54.788 41.1363 51.218 41.1363ZM51.218 37.0543C53.2946 37.0543 54.8697 36.2889 55.9431 34.7581C57.0164 33.2274 57.553 31.0041 57.553 28.0884C57.553 25.1969 57.0164 22.9979 55.9431 21.4915C54.8697 19.9607 53.2946 19.1953 51.218 19.1953C49.1413 19.1953 47.5546 19.9607 46.458 21.4915C45.3846 22.9979 44.848 25.1969 44.848 28.0884C44.848 31.0041 45.3846 33.2274 46.458 34.7581C47.5546 36.2889 49.1413 37.0543 51.218 37.0543Z" fill="white"/>
<path d="M15.5 30.3388C15.5 27.7701 16.7333 26.4858 19.2 26.4858H81.8C84.2667 26.4858 85.5 27.7701 85.5 30.3388V52.2069C85.5 58.9408 84.2333 64.7723 81.7 69.7014C79.1667 74.6303 75.3 78.4138 70.1 81.052C64.9667 83.7594 58.4333 85.1132 50.5 85.1132C44.5667 85.1132 39.4 84.3495 35 82.8222C30.6 81.2949 26.9667 79.0734 24.1 76.1577C21.2333 73.3113 19.0667 69.8749 17.6 65.8484C16.2 61.8219 15.5 57.2747 15.5 52.2069V30.3388ZM26.7 40.2315V51.8945C26.7 55.8516 27.5333 59.2532 29.2 62.0996C30.9333 65.0154 33.5667 67.2368 37.1 68.7642C40.6333 70.2914 45.1 71.0551 50.5 71.0551C55.9 71.0551 60.3667 70.2914 63.9 68.7642C67.4333 67.2368 70.0333 65.0154 71.7 62.0996C73.4333 59.2532 74.3 55.8516 74.3 51.8945V40.2315H26.7Z" fill="white"/>
<path d="M49.9292 60.5979C48.7785 60.0062 48.3064 59.4925 48.513 59.0568C48.5543 58.9696 48.6061 58.8878 48.6684 58.8115C48.7515 58.7459 48.8294 58.6639 48.902 58.5657L66.0357 41.0358C66.3785 40.6972 67.0101 40.7646 67.9307 41.2378L69.3115 41.9478C70.253 42.4319 70.6884 42.9132 70.6176 43.3917L67.6689 68.2153C67.6387 68.4436 67.5823 68.6449 67.4996 68.8192C67.293 69.2549 66.6876 69.2146 65.6833 68.6982L64.7105 68.1981C64.292 67.9829 63.957 67.7565 63.7054 67.5187C63.4748 67.2917 63.3744 67.0369 63.4044 66.7542L64.0837 61.5348L56.0497 57.4038L52.4831 61.1387C52.2962 61.3136 52.0513 61.391 51.7486 61.3708C51.4771 61.3396 51.1636 61.2326 50.8079 61.0497L49.9292 60.5979ZM58.9464 54.3407L64.6267 57.2613L65.7448 48.8938C65.7951 48.5131 65.8611 48.1271 65.9427 47.7355C66.0452 47.3547 66.153 46.99 66.2661 46.6418L66.1406 46.5772C65.9229 46.8717 65.7 47.1771 65.4719 47.4935C65.2439 47.8097 64.9896 48.099 64.7091 48.3613L58.9464 54.3407Z" fill="white"/>
</g>
<defs>
<clipPath id="clip0_9_732">
<rect width="100" height="100" fill="white"/>
</clipPath>
</defs>
</svg>
